<svg xmlns="http://www.w3.org/2000/svg" viewBox="0 0 48 48">
  <defs>
    <linearGradient id="g" x1="0%" y1="0%" x2="100%" y2="100%">
      <stop offset="0%" style="stop-color:#5b7cf6"/>
      <stop offset="100%" style="stop-color:#9b59f5"/>
    </linearGradient>
  </defs>
  <rect width="48" height="48" rx="12" fill="url(#g)"/>
  <path d="M38 18C38 16.9 37.6 15.9 36.8 15.2C36.1 14.4 35.1 14 34 14H14C12.9 14 11.9 14.4 11.2 15.2C10.4 15.9 10 16.9 10 18V30C10 31.1 10.4 32.1 11.2 32.8C11.9 33.6 12.9 34 14 34H20L24 38L28 34H34C35.1 34 36.1 33.6 36.8 32.8C37.6 32.1 38 31.1 38 30V18Z"
    fill="white" opacity="0.95"/>
</svg>
